<svg xmlns="http://www.w3.org/2000/svg" xmlns:xlink="http://www.w3.org/1999/xlink" width="400" height="400" viewBox="0 0 400 400"><defs><linearGradient id="gradient-19"><stop stop-color="#905e25" offset="0"/><stop stop-color="#f5ec8b" offset="0.5"/><stop stop-color="#905e36" offset="1"/></linearGradient></defs><g data-name="icon" fill="url(#gradient-19)" data="id:8029653" transform="translate(-36.58907773566154, -35.76139817158705) scale(4.7120794350128685)">
  
 <path d="m55.941 42.047c-1.582 2.8477-3.4453 5.5273-5.5625 8-0.16406 0.19922-0.23828 0.46094-0.19922 0.71875 0.46875 2.0039 1.7969 3.6992 3.6328 4.6367 0.066406 0.035156 0.14453 0.042968 0.21484 0.019531l3.2656-1.0391c0.25391-0.082031 0.52734 0.050782 0.62109 0.30078 0.39453 0.91797 0.9375 1.7617 1.6094 2.5 0.035156 0.046875 0.054687 0.10156 0.054687 0.15625v1.9414c0 0.058594-0.027344 0.11328-0.074219 0.14844-0.046875 0.035156-0.10547 0.046874-0.16016 0.03125-1.1016-0.41016-2.0352-1.168-2.6602-2.1602-0.058594-0.054687-0.125-0.09375-0.20312-0.10938-0.089844-0.027344-0.17578 0.058594-0.14844 0.14844 0.22266 0.67578 0.125 1.1484-0.28516 1.4219-0.56641 0.36719-1.1289 0.007812-1.6562-0.32422-1.207-0.73828-2.3594-1.5508-3.4609-2.4375-0.99609-0.80859-1.8359-1.793-2.4688-2.9102-0.054688-0.097656-0.17188-0.14062-0.27734-0.10156-0.38672 0.16797-0.79688 0.26953-1.2188 0.30078-0.089844 0.007813-0.17969-0.03125-0.24219-0.097656-0.21484-0.22266-0.34766-0.50781-0.375-0.8125-0.074218-1.2969-0.1875-2.4141-0.33984-3.3555-0.03125-0.20313-0.10937-0.39453-0.22656-0.55859-0.4375-0.60938-1.0547-1.4961-1.8516-2.668-1.0977-1.6016-1.9219-3.375-2.4375-5.2461-0.027344-0.09375-0.15625-0.11328-0.21094-0.027343-0.75 1.2031-1.0508 2.6367-0.84375 4.043 0.23828 1.0156 0.15625 2.0859-0.24609 3.0508-0.82812 1.3477-1.4883 2.3711-1.9766 3.0781-0.11719 0.16797-0.3125 0.26172-0.51562 0.25391-0.20312-0.007813-0.38672-0.11719-0.49219-0.29297l-0.007812-0.011719v0.003907c-0.28516-0.48828-0.29297-1.0898-0.023438-1.5859 0.035157-0.070312 0.32031-0.57812 0.85156-1.5195 0.44531-0.71484 0.52344-1.6016 0.21484-2.3828-0.03125-0.10156-0.16797-0.11719-0.21484-0.023437-0.62891 1.2344-1.332 2.4961-2.1094 3.7852-0.76562 1.2227-1.6094 2.3945-2.5234 3.5117-1.793 2.2422-3.3828 4.168-4.7695 5.7773h0.003906c-0.058594 0.0625-0.078125 0.14844-0.058594 0.23047 0.019532 0.082032 0.078126 0.14844 0.15625 0.17969 2.2461 0.94141 4.6133 2.168 7.0781 3.1055 0.40625 0.20703 0.60937 0.67188 0.48828 1.1133-0.49219 1.2422-1.8477 0.64062-2.8008 0.19922-2.2891-1.0586-4.4336-1.9805-6.4336-2.7695h0.003906c-0.12109-0.046875-0.25781-0.027343-0.35547 0.054688-0.19922 0.17188-0.43359 0.29297-0.6875 0.35547-0.089843 0.019531-0.18359 0.015624-0.27344-0.007813-1.4336-0.33203-2.7383-1.0742-3.7539-2.1445-0.042969-0.050782-0.074219-0.11328-0.085938-0.17969l-0.49219-2.9336v-0.003906c-0.011718-0.089844-0.12891-0.125-0.19141-0.054687l-7.4375 8.0938c-0.17969 0.19922-0.4375 0.3125-0.70703 0.32031-0.26953 0.007813-0.53125-0.097656-0.72266-0.28516l-0.039063-0.039063v-0.003906c-0.39453-0.39062-0.41016-1.0234-0.035156-1.4336 2.8984-3.1602 5.3711-5.8984 7.418-8.2266 0.45703-0.51953 1.0195-1.1172 1.6914-1.7891 0.12109-0.17188 0.31641-0.27734 0.52734-0.27344 0.21094 0 0.40625 0.10938 0.51953 0.28516 0.46484 0.53906 1.0234 0.98828 1.6484 1.3281 0.0625 0.035157 0.14062 0.035157 0.19922 0 0.0625-0.035156 0.10156-0.097656 0.10156-0.16797 0.03125-1.5469 0.55469-3.043 1.5-4.2656 0.46484-0.65625 1.3242-0.90625 2.0664-0.60156 1.4883 0.44141 2.8555 1.2148 4 2.2539 0.070313 0.058594 0.17188 0.050781 0.23047-0.019531 1.3555-1.9258 2.6094-3.9219 3.7461-5.9844 0.57812-0.84375 1.2891-1.5938 2.1016-2.2148 0.0625-0.054687 0.11719-0.11719 0.15234-0.19141 0.09375-0.23438 0.16797-0.47656 0.21875-0.72656 0.17969-0.92578 0.67578-1.7617 1.4023-2.3633 1.0391-0.92188 1.8281-1.5898 2.3594-2.0117h-0.003906c0.46094-0.37891 0.95703-0.71875 1.4766-1.0078 0.070312-0.035156 0.15625-0.023438 0.21484 0.03125l8.0742 7.7852c0.0625 0.0625 0.14844 0.089844 0.23438 0.078125 0.085938-0.011719 0.16406-0.058593 0.20703-0.13672 0.43359-0.71094 1.3633-2.1602 2.7891-4.3438h0.003906c0.57422-0.88281 1.2031-1.7305 1.8867-2.5352 0.054687-0.0625 0.13672-0.10156 0.21875-0.10156 0.085937 0 0.16406 0.039062 0.21875 0.10156l6.0195 7.2266h0.003906c0.085938 0.10547 0.15625 0.22656 0.20703 0.35156l0.97266 2.4375v0.003907c0.039062 0.09375 0.13281 0.15625 0.23828 0.15234 0.35156-0.046875 0.71094 0.007813 1.0312 0.16016 1.0234 0.61328 2.0039 1.3008 2.9258 2.0625 0.86328 0.76562 1.6562 1.6055 2.375 2.5078 1.25 1.5039 3.2695 3.8281 6.0625 6.9727h-0.003906c0.042969 0.046875 0.11328 0.058594 0.17188 0.027344l4.7617-2.7461-0.003906-0.003906c0.14844-0.085938 0.33594-0.035156 0.42578 0.10938 0.69531 1.1172 1.2656 1.9805 1.7109 2.5898 0.39844 0.44531 0.82422 0.86719 1.2656 1.2695 0.70312 0.68359 1.4961 1.2578 2.3594 1.7148 0.28125 0.17188 0.4375 0.49219 0.39453 0.81641 0.003906 1.3242-1.3398 1.1289-2.1484 0.66406-0.95703-0.55469-1.8047-1.2773-2.5-2.1406-0.015625-0.019532-0.035156-0.035157-0.058594-0.046876l-0.63672-0.30078 0.003906 0.003907c-0.25781-0.12109-0.46094-0.33594-0.57031-0.60156l-0.47266-1.1836h0.003907c-0.039063-0.09375-0.15234-0.13281-0.23828-0.074219-0.87109 0.58594-1.8086 1.0742-2.7891 1.457-0.070313 0.027344-0.125 0.085937-0.14844 0.16016-0.023437 0.070312-0.011718 0.15234 0.03125 0.21484l1.1758 1.7266c0.15234 0.21875 0.20703 0.48828 0.16016 0.75-0.046875 0.25781-0.19922 0.49219-0.41797 0.64062l-0.039063 0.027344c-0.4375 0.31641-1.0391 0.24219-1.3867-0.16797-0.86719-1.0195-2.3633-3.0703-3.7227-4.6445-3.9805-4.6211-5.9805-6.9453-6-6.9648-0.82422-0.94922-1.8125-1.75-2.9102-2.3672-0.066406-0.035156-0.14062 0.019531-0.125 0.09375l0.375 1.8438v-0.003906c0.042969 0.21875 0.14844 0.41797 0.30078 0.57812l1.9492 2.0469c0.33594 0.35156 0.35156 0.89844 0.039063 1.2734l-0.066406 0.078125v-0.003906c-0.32422 0.39062-0.89844 0.45703-1.3008 0.14844-1.3281-1-2.6719-2.0859-3.0625-3.8398-0.38672-1.7969-0.90625-3.5625-1.5586-5.2812-0.25-0.63281-0.59375-1.2266-1.0234-1.7539-1.6016-1.9844-2.6055-3.2266-3.0117-3.7305-0.03125-0.035156-0.082031-0.050781-0.12891-0.03125-0.042969 0.015626-0.074219 0.058594-0.070312 0.10938 0.042968 0.85547 0.09375 1.8398 0.15625 2.9531 0.027343 0.42578-0.007813 0.85547-0.10938 1.2695-0.011718 0.046875-0.03125 0.09375-0.066406 0.12891l-2.0859 2.4844 0.003906 0.003906c-0.22656 0.26953-0.62109 0.3125-0.90234 0.097657l-0.09375-0.070313h0.003907c-0.15234-0.11719-0.25-0.28906-0.27344-0.48047-0.019531-0.19141 0.035156-0.38281 0.15625-0.53125l1.4414-1.7734c0.15234-0.18359 0.22266-0.42188 0.19141-0.66016l-0.31641-2.5664c-0.015625-0.11328-0.16016-0.14062-0.21484-0.042968zm-12.539-2.9414c-0.003906 0.003906-0.007813 0.007812-0.011719 0.011719-0.015625 0.007812-0.023437 0.023437-0.019531 0.039062 0.85938 3.4609 2.7422 6.5859 5.4023 8.9648 0.066406 0.058594 0.15234 0.089844 0.24609 0.085937 0.089844-0.007812 0.17188-0.050781 0.23047-0.12109l1.6289-2c0.078125-0.097657 0.066406-0.23438-0.019531-0.32031-2.207-2.0781-4.332-4.1055-6.375-6.0859-0.26172-0.25781-0.56641-0.47266-0.89844-0.625-0.066407-0.03125-0.14453-0.007813-0.18359 0.050781zm-12.801 13.48c0.046876-0.054688 0.070313-0.125 0.0625-0.19922-0.007812-0.070313-0.042968-0.13672-0.10156-0.17969-0.80469-0.79688-1.8203-1.3516-2.9219-1.6016-0.097656-0.011719-0.19531 0.027343-0.26172 0.10156-0.39844 0.68359-0.58594 1.4648-0.54297 2.2578-0.082032 1.7266-0.91016 2.4727-2.1875 3.4531-0.058594 0.042969-0.10156 0.10156-0.125 0.17188-0.28516 0.75781 0.011718 1.2852 0.89453 1.582h-0.003907c0.24609 0.082031 0.51172 0.003906 0.67578-0.19141z"/>

  </g></svg>