<svg xmlns="http://www.w3.org/2000/svg" xmlns:xlink="http://www.w3.org/1999/xlink" width="400" height="400" viewBox="0 0 400 400"><defs><linearGradient id="gradient-19"><stop stop-color="#905e25" offset="0"/><stop stop-color="#f5ec8b" offset="0.5"/><stop stop-color="#905e36" offset="1"/></linearGradient></defs>
<rect data-name="background" width="100%" height="100%" fill="none"/><g data-name="icon" fill="#FFFFFF" data="id:8029653" transform="translate(-3.0817315041047095,137.16649486910688) scale(1.255830978494506)">
  
 <path d="m55.941 42.047c-1.582 2.8477-3.4453 5.5273-5.5625 8-0.16406 0.19922-0.23828 0.46094-0.19922 0.71875 0.46875 2.0039 1.7969 3.6992 3.6328 4.6367 0.066406 0.035156 0.14453 0.042968 0.21484 0.019531l3.2656-1.0391c0.25391-0.082031 0.52734 0.050782 0.62109 0.30078 0.39453 0.91797 0.9375 1.7617 1.6094 2.5 0.035156 0.046875 0.054687 0.10156 0.054687 0.15625v1.9414c0 0.058594-0.027344 0.11328-0.074219 0.14844-0.046875 0.035156-0.10547 0.046874-0.16016 0.03125-1.1016-0.41016-2.0352-1.168-2.6602-2.1602-0.058594-0.054687-0.125-0.09375-0.20312-0.10938-0.089844-0.027344-0.17578 0.058594-0.14844 0.14844 0.22266 0.67578 0.125 1.1484-0.28516 1.4219-0.56641 0.36719-1.1289 0.007812-1.6562-0.32422-1.207-0.73828-2.3594-1.5508-3.4609-2.4375-0.99609-0.80859-1.8359-1.793-2.4688-2.9102-0.054688-0.097656-0.17188-0.14062-0.27734-0.10156-0.38672 0.16797-0.79688 0.26953-1.2188 0.30078-0.089844 0.007813-0.17969-0.03125-0.24219-0.097656-0.21484-0.22266-0.34766-0.50781-0.375-0.8125-0.074218-1.2969-0.1875-2.4141-0.33984-3.3555-0.03125-0.20313-0.10937-0.39453-0.22656-0.55859-0.4375-0.60938-1.0547-1.4961-1.8516-2.668-1.0977-1.6016-1.9219-3.375-2.4375-5.2461-0.027344-0.09375-0.15625-0.11328-0.21094-0.027343-0.75 1.2031-1.0508 2.6367-0.84375 4.043 0.23828 1.0156 0.15625 2.0859-0.24609 3.0508-0.82812 1.3477-1.4883 2.3711-1.9766 3.0781-0.11719 0.16797-0.3125 0.26172-0.51562 0.25391-0.20312-0.007813-0.38672-0.11719-0.49219-0.29297l-0.007812-0.011719v0.003907c-0.28516-0.48828-0.29297-1.0898-0.023438-1.5859 0.035157-0.070312 0.32031-0.57812 0.85156-1.5195 0.44531-0.71484 0.52344-1.6016 0.21484-2.3828-0.03125-0.10156-0.16797-0.11719-0.21484-0.023437-0.62891 1.2344-1.332 2.4961-2.1094 3.7852-0.76562 1.2227-1.6094 2.3945-2.5234 3.5117-1.793 2.2422-3.3828 4.168-4.7695 5.7773h0.003906c-0.058594 0.0625-0.078125 0.14844-0.058594 0.23047 0.019532 0.082032 0.078126 0.14844 0.15625 0.17969 2.2461 0.94141 4.6133 2.168 7.0781 3.1055 0.40625 0.20703 0.60937 0.67188 0.48828 1.1133-0.49219 1.2422-1.8477 0.64062-2.8008 0.19922-2.2891-1.0586-4.4336-1.9805-6.4336-2.7695h0.003906c-0.12109-0.046875-0.25781-0.027343-0.35547 0.054688-0.19922 0.17188-0.43359 0.29297-0.6875 0.35547-0.089843 0.019531-0.18359 0.015624-0.27344-0.007813-1.4336-0.33203-2.7383-1.0742-3.7539-2.1445-0.042969-0.050782-0.074219-0.11328-0.085938-0.17969l-0.49219-2.9336v-0.003906c-0.011718-0.089844-0.12891-0.125-0.19141-0.054687l-7.4375 8.0938c-0.17969 0.19922-0.4375 0.3125-0.70703 0.32031-0.26953 0.007813-0.53125-0.097656-0.72266-0.28516l-0.039063-0.039063v-0.003906c-0.39453-0.39062-0.41016-1.0234-0.035156-1.4336 2.8984-3.1602 5.3711-5.8984 7.418-8.2266 0.45703-0.51953 1.0195-1.1172 1.6914-1.7891 0.12109-0.17188 0.31641-0.27734 0.52734-0.27344 0.21094 0 0.40625 0.10938 0.51953 0.28516 0.46484 0.53906 1.0234 0.98828 1.6484 1.3281 0.0625 0.035157 0.14062 0.035157 0.19922 0 0.0625-0.035156 0.10156-0.097656 0.10156-0.16797 0.03125-1.5469 0.55469-3.043 1.5-4.2656 0.46484-0.65625 1.3242-0.90625 2.0664-0.60156 1.4883 0.44141 2.8555 1.2148 4 2.2539 0.070313 0.058594 0.17188 0.050781 0.23047-0.019531 1.3555-1.9258 2.6094-3.9219 3.7461-5.9844 0.57812-0.84375 1.2891-1.5938 2.1016-2.2148 0.0625-0.054687 0.11719-0.11719 0.15234-0.19141 0.09375-0.23438 0.16797-0.47656 0.21875-0.72656 0.17969-0.92578 0.67578-1.7617 1.4023-2.3633 1.0391-0.92188 1.8281-1.5898 2.3594-2.0117h-0.003906c0.46094-0.37891 0.95703-0.71875 1.4766-1.0078 0.070312-0.035156 0.15625-0.023438 0.21484 0.03125l8.0742 7.7852c0.0625 0.0625 0.14844 0.089844 0.23438 0.078125 0.085938-0.011719 0.16406-0.058593 0.20703-0.13672 0.43359-0.71094 1.3633-2.1602 2.7891-4.3438h0.003906c0.57422-0.88281 1.2031-1.7305 1.8867-2.5352 0.054687-0.0625 0.13672-0.10156 0.21875-0.10156 0.085937 0 0.16406 0.039062 0.21875 0.10156l6.0195 7.2266h0.003906c0.085938 0.10547 0.15625 0.22656 0.20703 0.35156l0.97266 2.4375v0.003907c0.039062 0.09375 0.13281 0.15625 0.23828 0.15234 0.35156-0.046875 0.71094 0.007813 1.0312 0.16016 1.0234 0.61328 2.0039 1.3008 2.9258 2.0625 0.86328 0.76562 1.6562 1.6055 2.375 2.5078 1.25 1.5039 3.2695 3.8281 6.0625 6.9727h-0.003906c0.042969 0.046875 0.11328 0.058594 0.17188 0.027344l4.7617-2.7461-0.003906-0.003906c0.14844-0.085938 0.33594-0.035156 0.42578 0.10938 0.69531 1.1172 1.2656 1.9805 1.7109 2.5898 0.39844 0.44531 0.82422 0.86719 1.2656 1.2695 0.70312 0.68359 1.4961 1.2578 2.3594 1.7148 0.28125 0.17188 0.4375 0.49219 0.39453 0.81641 0.003906 1.3242-1.3398 1.1289-2.1484 0.66406-0.95703-0.55469-1.8047-1.2773-2.5-2.1406-0.015625-0.019532-0.035156-0.035157-0.058594-0.046876l-0.63672-0.30078 0.003906 0.003907c-0.25781-0.12109-0.46094-0.33594-0.57031-0.60156l-0.47266-1.1836h0.003907c-0.039063-0.09375-0.15234-0.13281-0.23828-0.074219-0.87109 0.58594-1.8086 1.0742-2.7891 1.457-0.070313 0.027344-0.125 0.085937-0.14844 0.16016-0.023437 0.070312-0.011718 0.15234 0.03125 0.21484l1.1758 1.7266c0.15234 0.21875 0.20703 0.48828 0.16016 0.75-0.046875 0.25781-0.19922 0.49219-0.41797 0.64062l-0.039063 0.027344c-0.4375 0.31641-1.0391 0.24219-1.3867-0.16797-0.86719-1.0195-2.3633-3.0703-3.7227-4.6445-3.9805-4.6211-5.9805-6.9453-6-6.9648-0.82422-0.94922-1.8125-1.75-2.9102-2.3672-0.066406-0.035156-0.14062 0.019531-0.125 0.09375l0.375 1.8438v-0.003906c0.042969 0.21875 0.14844 0.41797 0.30078 0.57812l1.9492 2.0469c0.33594 0.35156 0.35156 0.89844 0.039063 1.2734l-0.066406 0.078125v-0.003906c-0.32422 0.39062-0.89844 0.45703-1.3008 0.14844-1.3281-1-2.6719-2.0859-3.0625-3.8398-0.38672-1.7969-0.90625-3.5625-1.5586-5.2812-0.25-0.63281-0.59375-1.2266-1.0234-1.7539-1.6016-1.9844-2.6055-3.2266-3.0117-3.7305-0.03125-0.035156-0.082031-0.050781-0.12891-0.03125-0.042969 0.015626-0.074219 0.058594-0.070312 0.10938 0.042968 0.85547 0.09375 1.8398 0.15625 2.9531 0.027343 0.42578-0.007813 0.85547-0.10938 1.2695-0.011718 0.046875-0.03125 0.09375-0.066406 0.12891l-2.0859 2.4844 0.003906 0.003906c-0.22656 0.26953-0.62109 0.3125-0.90234 0.097657l-0.09375-0.070313h0.003907c-0.15234-0.11719-0.25-0.28906-0.27344-0.48047-0.019531-0.19141 0.035156-0.38281 0.15625-0.53125l1.4414-1.7734c0.15234-0.18359 0.22266-0.42188 0.19141-0.66016l-0.31641-2.5664c-0.015625-0.11328-0.16016-0.14062-0.21484-0.042968zm-12.539-2.9414c-0.003906 0.003906-0.007813 0.007812-0.011719 0.011719-0.015625 0.007812-0.023437 0.023437-0.019531 0.039062 0.85938 3.4609 2.7422 6.5859 5.4023 8.9648 0.066406 0.058594 0.15234 0.089844 0.24609 0.085937 0.089844-0.007812 0.17188-0.050781 0.23047-0.12109l1.6289-2c0.078125-0.097657 0.066406-0.23438-0.019531-0.32031-2.207-2.0781-4.332-4.1055-6.375-6.0859-0.26172-0.25781-0.56641-0.47266-0.89844-0.625-0.066407-0.03125-0.14453-0.007813-0.18359 0.050781zm-12.801 13.48c0.046876-0.054688 0.070313-0.125 0.0625-0.19922-0.007812-0.070313-0.042968-0.13672-0.10156-0.17969-0.80469-0.79688-1.8203-1.3516-2.9219-1.6016-0.097656-0.011719-0.19531 0.027343-0.26172 0.10156-0.39844 0.68359-0.58594 1.4648-0.54297 2.2578-0.082032 1.7266-0.91016 2.4727-2.1875 3.4531-0.058594 0.042969-0.10156 0.10156-0.125 0.17188-0.28516 0.75781 0.011718 1.2852 0.89453 1.582h-0.003907c0.24609 0.082031 0.51172 0.003906 0.67578-0.19141z"/>

  </g><g data-name="business_name" fill="#FFFFFF" data="id:304" transform="translate(132.12592509347928,182.03520323854298) scale(0.48737912655400367)"><path d="M12.88,48.24q-3.24,0-5.78-1.4t-3.98-3.84t-1.44-5.6t1.44-5.6t3.98-3.82t5.78-1.38q2.88,0,5.14,1.14t3.5,3.38l-2.92,1.88q-1.04-1.56-2.54-2.3t-3.22-0.74q-2.08,0-3.72,0.92t-2.6,2.58t-0.96,3.94t0.96,3.96t2.6,2.6t3.72,0.92q1.72,0,3.22-0.74t2.54-2.3l2.92,1.84q-1.24,2.2-3.5,3.38t-5.14,1.18z M39.64,48l0-4.48l-0.2-0.84l0-7.64q0-2.44-1.42-3.78t-4.26-1.34q-1.88,0-3.68,0.62t-3.04,1.66l-1.6-2.88q1.64-1.32,3.94-2.02t4.82-0.7q4.36,0,6.72,2.12t2.36,6.48l0,12.8l-3.64,0z M32.68,48.24q-2.36,0-4.14-0.8t-2.74-2.22t-0.96-3.22q0-1.72,0.82-3.12t2.68-2.24t5.02-0.84l6.72,0l0,2.76l-6.56,0q-2.88,0-3.88,0.96t-1,2.32q0,1.56,1.24,2.5t3.44,0.94q2.16,0,3.78-0.96t2.34-2.8l0.76,2.64q-0.76,1.88-2.68,2.98t-4.84,1.1z M50.4,48l0-29.68l3.84,0l0,29.68l-3.84,0z M70.32,48.24q-3.08,0-5.5-1.36t-3.82-3.8t-1.4-5.68t1.4-5.66t3.82-3.78t5.5-1.36q2.68,0,4.84,1.2t3.46,3.6t1.3,6t-1.26,6t-3.42,3.62t-4.92,1.22z M70.64,44.88q2,0,3.62-0.92t2.56-2.62t0.94-3.94q0-2.28-0.94-3.94t-2.56-2.58t-3.62-0.92q-2.04,0-3.64,0.92t-2.56,2.58t-0.96,3.94q0,2.24,0.96,3.94t2.56,2.62t3.64,0.92z M77.88,48l0-5.72l0.24-4.92l-0.4-4.92l0-14.12l3.84,0l0,29.68l-3.68,0z M93.32,48l-7.88-21.2l3.64,0l7,19.2l-1.72,0l7.28-19.2l3.24,0l7.12,19.2l-1.68,0l7.16-19.2l3.44,0l-7.92,21.2l-3.68,0l-6.68-17.52l1.12,0l-6.76,17.52l-3.68,0z M134.24,48.24q-3.4,0-5.98-1.4t-4-3.84t-1.42-5.6t1.38-5.6t3.8-3.82t5.46-1.38q3.08,0,5.44,1.36t3.7,3.82t1.34,5.74q0,0.24-0.02,0.56t-0.06,0.6l-18.04,0l0-2.76l16.04,0l-1.56,0.96q0.04-2.04-0.84-3.64t-2.42-2.5t-3.58-0.9q-2,0-3.56,0.9t-2.44,2.52t-0.88,3.7l0,0.64q0,2.12,0.98,3.78t2.74,2.58t4.04,0.92q1.88,0,3.42-0.64t2.7-1.92l2.12,2.48q-1.44,1.68-3.58,2.56t-4.78,0.88z M149.28,48l0-29.68l3.84,0l0,29.68l-3.84,0z M160.44,48l0-29.68l3.84,0l0,29.68l-3.84,0z  M182.36,48l0-29.68l3.84,0l0,29.68l-3.84,0z M202.96,48.24q-3.4,0-5.98-1.4t-4-3.84t-1.42-5.6t1.38-5.6t3.8-3.82t5.46-1.38q3.08,0,5.44,1.36t3.7,3.82t1.34,5.74q0,0.24-0.02,0.56t-0.06,0.6l-18.04,0l0-2.76l16.04,0l-1.56,0.96q0.04-2.04-0.84-3.64t-2.42-2.5t-3.58-0.9q-2,0-3.56,0.9t-2.44,2.52t-0.88,3.7l0,0.64q0,2.12,0.98,3.78t2.74,2.58t4.04,0.92q1.88,0,3.42-0.64t2.7-1.92l2.12,2.48q-1.44,1.68-3.58,2.56t-4.78,0.88z M231.16,48l0-4.48l-0.2-0.84l0-7.64q0-2.44-1.42-3.78t-4.26-1.34q-1.88,0-3.68,0.62t-3.04,1.66l-1.6-2.88q1.64-1.32,3.94-2.02t4.82-0.7q4.36,0,6.72,2.12t2.36,6.48l0,12.8l-3.64,0z M224.2,48.24q-2.36,0-4.14-0.8t-2.74-2.22t-0.96-3.22q0-1.72,0.82-3.12t2.68-2.24t5.02-0.84l6.72,0l0,2.76l-6.56,0q-2.88,0-3.88,0.96t-1,2.32q0,1.56,1.24,2.5t3.44,0.94q2.16,0,3.78-0.96t2.34-2.8l0.76,2.64q-0.76,1.88-2.68,2.98t-4.84,1.1z M250.68,48.24q-3.08,0-5.5-1.36t-3.82-3.8t-1.4-5.68t1.4-5.66t3.82-3.78t5.5-1.36q2.68,0,4.84,1.2t3.46,3.6t1.3,6t-1.26,6t-3.42,3.62t-4.92,1.22z M251,44.88q2,0,3.62-0.92t2.56-2.62t0.94-3.94q0-2.28-0.94-3.94t-2.56-2.58t-3.62-0.92q-2.04,0-3.64,0.92t-2.56,2.58t-0.96,3.94q0,2.24,0.96,3.94t2.56,2.62t3.64,0.92z M258.24,48l0-5.72l0.24-4.92l-0.4-4.92l0-14.12l3.84,0l0,29.68l-3.68,0z M278.64,48.24q-3.4,0-5.98-1.4t-4-3.84t-1.42-5.6t1.38-5.6t3.8-3.82t5.46-1.38q3.08,0,5.44,1.36t3.7,3.82t1.34,5.74q0,0.24-0.02,0.56t-0.06,0.6l-18.04,0l0-2.76l16.04,0l-1.56,0.96q0.04-2.04-0.84-3.64t-2.42-2.5t-3.58-0.9q-2,0-3.56,0.9t-2.44,2.52t-0.88,3.7l0,0.64q0,2.12,0.98,3.78t2.74,2.58t4.04,0.92q1.88,0,3.42-0.64t2.7-1.92l2.12,2.48q-1.44,1.68-3.58,2.56t-4.78,0.88z M293.68,48l0-21.2l3.68,0l0,5.76l-0.36-1.44q0.88-2.2,2.96-3.36t5.12-1.16l0,3.72q-0.24-0.04-0.46-0.04l-0.42,0q-3.08,0-4.88,1.84t-1.8,5.32l0,10.56l-3.84,0z M316.16,48.24q-2.64,0-5.02-0.72t-3.74-1.76l1.6-3.04q1.36,0.92,3.36,1.56t4.08,0.64q2.68,0,3.86-0.76t1.18-2.12q0-1-0.72-1.56t-1.9-0.84t-2.62-0.5t-2.88-0.56t-2.64-0.96t-1.92-1.72t-0.72-2.94q0-1.92,1.08-3.36t3.06-2.22t4.7-0.78q2.08,0,4.22,0.5t3.5,1.42l-1.64,3.04q-1.44-0.96-3-1.32t-3.12-0.36q-2.52,0-3.76,0.82t-1.24,2.1q0,1.08,0.74,1.66t1.92,0.9t2.62,0.54t2.88,0.56t2.62,0.94t1.92,1.68t0.74,2.88q0,1.92-1.12,3.32t-3.16,2.18t-4.88,0.78z M341.44,26.6q2.6,0,4.58,1t3.1,3.04t1.12,5.16l0,12.2l-3.84,0l0-11.76q0-3.08-1.5-4.64t-4.22-1.56q-2.04,0-3.56,0.8t-2.34,2.36t-0.82,3.88l0,10.92l-3.84,0l0-29.68l3.84,0l0,14.2l-0.76-1.52q1.04-2.08,3.2-3.24t5.04-1.16z M357.36,48l0-21.2l3.84,0l0,21.2l-3.84,0z M359.28,22.72q-1.12,0-1.86-0.72t-0.74-1.76q0-1.08,0.74-1.8t1.86-0.72t1.86,0.7t0.74,1.74q0,1.08-0.72,1.82t-1.88,0.74z M379.76,48.24q-2.64,0-4.82-1.22t-3.48-3.62t-1.3-6t1.26-6t3.44-3.6t4.9-1.2q3.12,0,5.52,1.36t3.8,3.78t1.4,5.66t-1.4,5.68t-3.8,3.8t-5.52,1.36z M368.52,55.76l0-28.96l3.68,0l0,5.72l-0.24,4.92l0.4,4.92l0,13.4l-3.84,0z M379.44,44.88q2.04,0,3.66-0.92t2.56-2.62t0.94-3.94q0-2.28-0.94-3.94t-2.56-2.58t-3.66-0.92q-2,0-3.62,0.92t-2.56,2.58t-0.94,3.94q0,2.24,0.94,3.94t2.56,2.62t3.62,0.92z  M415.84,56q-2.92,0-5.66-0.82t-4.46-2.34l1.84-2.96q1.48,1.28,3.64,2.02t4.52,0.74q3.76,0,5.52-1.76t1.76-5.36l0-4.48l0.4-4.2l-0.2-4.24l0-5.8l3.64,0l0,18.32q0,5.6-2.8,8.24t-8.2,2.64z M415.36,47.12q-3.08,0-5.5-1.3t-3.84-3.62t-1.42-5.36q0-3.08,1.42-5.38t3.84-3.58t5.5-1.28q2.72,0,4.96,1.1t3.58,3.38t1.34,5.76q0,3.44-1.34,5.72t-3.58,3.42t-4.96,1.14z M415.8,43.76q2.12,0,3.76-0.88t2.58-2.44t0.94-3.6t-0.94-3.6t-2.58-2.42t-3.76-0.86t-3.78,0.86t-2.6,2.42t-0.94,3.6t0.94,3.6t2.6,2.44t3.78,0.88z M434.16,48l0-21.2l3.68,0l0,5.76l-0.36-1.44q0.88-2.2,2.96-3.36t5.12-1.16l0,3.72q-0.24-0.04-0.46-0.04l-0.42,0q-3.08,0-4.88,1.84t-1.8,5.32l0,10.56l-3.84,0z M459.64,48.24q-3.2,0-5.68-1.4t-3.92-3.86t-1.44-5.58q0-3.16,1.44-5.6t3.92-3.82t5.68-1.38q3.16,0,5.66,1.38t3.92,3.8t1.42,5.62q0,3.16-1.42,5.6t-3.92,3.84t-5.66,1.4z M459.64,44.88q2.04,0,3.66-0.92t2.54-2.62t0.92-3.94q0-2.28-0.92-3.94t-2.54-2.58t-3.66-0.92t-3.64,0.92t-2.56,2.58t-0.96,3.94q0,2.24,0.96,3.94t2.56,2.62t3.64,0.92z M484.88,48.24q-2.72,0-4.78-1t-3.2-3.06t-1.14-5.18l0-12.2l3.84,0l0,11.76q0,3.12,1.5,4.68t4.22,1.56q2,0,3.48-0.82t2.28-2.4t0.8-3.82l0-10.96l3.84,0l0,21.2l-3.64,0l0-5.72l0.6,1.52q-1.04,2.12-3.12,3.28t-4.68,1.16z M514.28,48.24q-2.64,0-4.82-1.22t-3.48-3.62t-1.3-6t1.26-6t3.44-3.6t4.9-1.2q3.12,0,5.52,1.36t3.8,3.78t1.4,5.66t-1.4,5.68t-3.8,3.8t-5.52,1.36z M503.04,55.76l0-28.96l3.68,0l0,5.72l-0.24,4.92l0.4,4.92l0,13.4l-3.84,0z M513.96,44.88q2.04,0,3.66-0.92t2.56-2.62t0.94-3.94q0-2.28-0.94-3.94t-2.56-2.58t-3.66-0.92q-2,0-3.62,0.92t-2.56,2.58t-0.94,3.94q0,2.24,0.94,3.94t2.56,2.62t3.62,0.92z"/></g></svg>